# xmcd CD database file
#
# Track frame offsets:
#	150
#	11914
#	26856
#	40418
#	54134
#
# Disc length: 892 seconds
#
# Revision: 0
# Processed by: cddbd v1.5.2PL0 Copyright (c) Steve Scherf et al.
# Submitted via: CDex 1.81
#
DISCID=3a037a05
DTITLE=Victoria Avenue - EP
DYEAR=2015
DGENRE=Country
TTITLE0=Knock Knock
TTITLE1=Quit You
TTITLE2=Summertime
TTITLE3=Love Makes You Do Crazy Things
TTITLE4=Lovebird
EXTD=YEAR: 2015
EXTT0=
EXTT1=
EXTT2=
EXTT3=
EXTT4=
PLAYORDER=
